<?xml version="1.0" encoding="utf-8" ?>
<svg baseProfile="full" height="137.27799833677713" version="1.1" width="600.0663381814958" xmlns="http://www.w3.org/2000/svg" xmlns:ev="http://www.w3.org/2001/xml-events" xmlns:xlink="http://www.w3.org/1999/xlink"><defs /><rect fill="white" height="137.27799833677713" width="600.0663381814958" x="0" y="0" /><path d="M79.79318282604217,47.071551116928475 m24.25813446044922,5.466568374633789 m-1.3378862380981444,1.5218542098999024 l-0.8383354187011719,2.877190589904785 -0.8898914337158204,3.7169116973876952 l-0.6739835739135742,4.487879943847656 -0.15069773197174072,4.6710365295410154 l0.6489839076995849,3.759539794921875 1.081645393371582,2.420435905456543 l2.061731719970703,2.116339683532715 1.9962688446044923,1.4912679672241211 l2.4768028259277344,0.798769187927246 m-60.151806640625,21.705734252929688 l-11.425674438476562,4.377946472167968 -6.447683715820313,2.460068130493164 l-5.400790786743164,3.3349044799804686 m29.84435119628906,-32.65279541015625 l-0.2089991092681885,1.5442792892456054 0.7125839710235595,0.5725826740264892 l0.010635782778263093,0.4718339920043945 0.5143686294555664,0.40370888710021974 l0.08782107830047607,-1.70933837890625 0.7242542266845703,-1.447183609008789 l-0.083031165599823,-2.474356842041016 -0.8880105972290039,-2.2827220916748048 l-1.4304014205932618,-1.449376106262207 -1.0713552474975585,-0.25583882331848146 l-0.8669816017150879,0.25378587245941164 m29.724713134765626,-8.901698303222656 l-0.1093646764755249,1.389481544494629 -0.133758020401001,0.957790756225586 l0.28129303455352783,1.10280179977417 0.25315403938293457,0.6883469581604004 l0.11637628078460693,0.24587066173553468 -0.10150943994522095,-0.5655556201934815 l-0.055573225021362305,-1.0828109741210938 0.1542469382286072,-1.751167106628418 l12.749633026123046,3.402771759033203 5.122877502441407,-3.8456161499023436 l4.585542678833008,-3.4104736328125 3.714258575439453,-3.3986671447753904 l1.8193166732788086,-2.641632843017578 0.7364330768585206,-0.7562849521636963 l-0.15236200094223024,-0.3453433275222778 -0.18081297874450683,-0.2655068635940552 l-0.9269516944885254,-0.2693671703338623 0.2305535316467285,0.293963885307312 l-0.7430837154388428,-0.3323200702667236 -0.21444902420043946,-0.5723421096801757 l0.11284475326538086,-0.16882939338684083 2.479539680480957,-1.8845521926879882 l0.0050835669040679935,-0.6369973182678222 1.211665153503418,0.49712271690368653 l0.8168593406677246,0.48542160987854005 m-2.2741825103759767,-7.556272888183594 l-0.15303411483764648,0.501044511795044 -0.4477489948272705,0.9329419136047363 l-0.07543742060661315,1.9034040451049805 -0.5828772068023682,2.22305908203125 l-0.3684910535812378,2.7367265701293944 -0.5985980033874512,2.191965103149414 l-0.3587383031845093,1.7162721633911133 -0.023898042738437653,0.7523146152496338 l0.6368416786193848,-0.07721970081329346 1.8102571487426757,-0.6195169448852539 l1.9331890106201173,-1.9394668579101562 1.4872665405273438,-2.5646190643310547 l0.8822114944458008,-2.301108169555664 0.3359849214553833,-2.4395431518554687 l-0.3804365634918213,-1.807722282409668 -0.5501970767974853,-0.30562124252319334 l-1.2706418991088868,0.061141228675842284 -1.7561323165893554,1.144969367980957 l-1.8383312225341797,1.9103733062744142 0.5620110034942627,2.8859920501708984 l0.5958688735961915,2.7001182556152346 1.2999475479125977,2.60919189453125 l2.2288253784179686,1.750431442260742 2.375100326538086,0.19465137720108033 l2.0128326416015625,-1.2515610694885253 2.39475040435791,-1.434769630432129 m4.281567001342774,-4.554267501831054 l-0.7133176326751709,0.8678964614868164 0.0066556274890899655,1.5570473670959473 l0.45565013885498046,1.8252790451049805 0.21689488887786865,1.3957785606384276 l0.47586650848388673,0.8084405899047852 0.34812421798706056,0.10585935115814209 l0.18693674802780152,-0.3250389575958252 0.4047149658203125,-0.586597204208374 l0.2762096881866455,-0.8994535446166992 0.6170265674591064,-0.6033322811126709 l1.1850385665893555,-0.04076551198959351 0.2139155626296997,-1.4621417999267579 l1.3006921768188477,-0.584526252746582 1.4283576965332032,-0.30907723903656004 l1.5305377960205078,-0.46898646354675294 0.7114064693450928,0.33129315376281737 l0.4930122375488281,0.8897572517395019 0.010055816918611526,1.1866560935974122 l-0.6053568840026855,1.0353578567504882 -0.2219534158706665,1.3047277450561523 l-0.38914010524749754,0.8432043075561524 -0.09190047383308411,0.8885341644287109 l-0.21791551113128663,0.2739056348800659 0.2706754207611084,0.32831172943115233 l0.9428224563598633,0.09463876485824585 0.7416207790374756,-0.48248844146728515 l1.23067045211792,-0.5586223125457763 1.312981414794922,-1.037874698638916 m11.778278350830078,-1.5829813003540039 l-0.9567779541015625,0.06523528695106506 -0.7702451705932617,-0.1453181505203247 l-0.8139961242675782,0.05345739126205444 -0.9172114372253418,0.07434548139572143 l0.08957490921020508,0.21605939865112306 -0.32696702480316164,-0.9628213882446289 l0.6908255577087402,-1.0121040344238281 0.8052288055419922,-1.2832173347473144 l1.0427934646606445,-1.1843286514282227 0.9945493698120117,-0.7513485908508301 l0.9100809097290039,-0.434692907333374 0.635680866241455,0.4297037124633789 l0.2259321928024292,0.8116764068603516 0.41288208961486816,1.2618465423583984 l0.4408107757568359,1.9617027282714843 0.5799682140350342,1.3712387084960938 l1.0310305595397948,1.0495100021362305 0.9796383857727051,0.4936854362487793 l1.2428380966186523,-0.1335994005203247 1.3326496124267577,-0.22946290969848632 m17.163603210449217,-10.026289367675782 l-1.0902671813964844,-0.27548942565917967 -0.7824680805206299,-0.33551046848297117 l-1.5553287506103515,-0.3022716283798218 -1.3021153450012206,0.004331972077488899 l-1.5595905303955078,1.0552944183349608 -0.9025830268859864,1.7831048965454102 l-0.38075032234191897,1.2127983093261718 0.23970272541046142,0.8698440551757812 l0.8979022979736329,0.3416086196899414 1.3374073028564453,0.30274739265441897 l1.9442646026611328,0.03115706443786621 1.6894414901733399,0.4474231719970703 l1.1807708740234375,0.4035233974456787 0.6357762336730957,0.6518354415893555 l0.7517539978027343,0.9187968254089356 0.2507943868637085,0.8980648040771484 l0.35474357604980467,1.4739778518676758 0.136212158203125,1.7502538681030273 l-0.3170952320098877,1.7557241439819335 m37.45078735351562,-12.242210388183594 l-1.203050422668457,-1.1235328674316407 -1.3678464889526367,-0.3829848527908325 l-1.4646177291870117,-0.10408432483673095 8.63900375366211,-9.118201446533202 l0.020997950434684755,2.7617984771728517 0.002658766880631447,5.437186813354492 l0.8241744995117187,5.896424865722656 0.8602691650390625,5.376033020019531 l0.04169638454914093,5.244696807861328 -0.03158074617385864,3.6895694732666016 l0.4755216598510742,1.9698757171630858 0.24441797733306886,-0.6749291896820069 l0.14057070016860962,-1.590625 0.395854115486145,-2.4829614639282225 m16.122529602050783,-4.450132369995117 l-0.6885416030883789,0.43613648414611816 -0.06089187264442444,0.8125041961669922 l-0.37802634239196775,0.6147507667541504 0.33628206253051757,1.1937521934509276 l0.3479904651641846,0.29362642765045166 0.6036953926086426,-0.15528528690338134 l1.0955486297607422,-0.6695123672485351 0.7410346031188965,-1.7859109878540038 l0.9090974807739258,-2.115841102600098 -0.08897866010665893,-2.4004154205322266 l-0.6250214576721191,-2.5616548538208006 -1.113328742980957,-1.8589588165283204 l-1.081754207611084,-0.7516414642333984 -1.0471714973449706,-0.443257999420166 l-1.219983959197998,0.6042066097259522 -0.8783664703369141,1.1928699493408204 l-0.7580695152282715,0.8181477546691894 0.9424250602722168,0.8771337509155274 l1.0832801818847657,0.10033129453659058 1.494997787475586,-0.05185917019844055 l1.8480932235717773,-0.49058985710144043 1.793978500366211,-0.839997386932373 l1.166135025024414,-0.14895293712615967 0.7524189949035645,0.35254669189453125 l0.31876633167266843,0.6712445735931396 -0.22159938812255858,1.3627601623535157 l-0.6450327873229981,1.8099456787109376 -0.9173574447631836,1.9333709716796874 l-0.8233125686645508,1.582550048828125 -0.7967938899993896,1.2283946990966796 l-0.2505019187927246,1.078298568725586 -0.15474421977996827,0.7759190559387207 l0.42817254066467286,0.9532408714294434 0.904447078704834,1.0000857353210448 l0.5991530418395996,0.45376129150390626 1.2973882675170898,0.4187586307525635 l1.3205171585083009,0.5104332447052002 0.639252758026123,0.019488781690597534 l0.8826597213745118,0.03635537624359131 0.44239211082458496,-1.2714950561523437 l0.22801871299743653,-1.4750170707702637 0.3109168529510498,-1.4467681884765624 l0.4039618968963623,-0.8887313842773438 0.7596693992614746,-0.9091809272766114 l1.1247676849365233,-0.6508978843688965 1.6096178054809571,-0.4256319999694824 l1.1118734359741211,-0.3512448310852051 1.1199531555175781,-0.11597267389297486 l0.4426218032836914,0.04289482235908508 0.7835323810577393,0.5825243473052979 l-0.2542267799377441,0.9550068855285645 -0.5224165916442871,1.092291259765625 l-1.2712908744812013,1.515102481842041 -1.5200528144836425,1.8676637649536132 l-1.3958582878112793,2.0832874298095705 -0.23139219284057616,1.338714599609375 l-0.40064249038696287,0.6997263908386231 0.7187483787536622,0.34787755012512206 l0.9257471084594726,0.11507748365402222 0.49694299697875977,-0.42111868858337403 l1.022404098510742,0.08077502250671387 0.15387011766433717,-0.48427915573120117 l0.1706835985183716,-0.39759120941162107 -0.7101888179779052,0.09935223460197448 l-0.24949660301208496,0.02699640691280365 -1.4551859855651856,0.4085549354553223 l-0.7811326026916504,1.3585556983947753 -0.965725326538086,1.0826553344726562 l-0.49641027450561526,0.8671945571899414 -0.2396165132522583,0.4673947811126709 l0.06692104935646057,0.21648795604705812 0.6201823234558106,-0.2727496147155762 l0.6467265605926513,-0.8539248466491699 1.2853312492370605,-1.1668877601623535 l1.3879202842712401,-1.0824008941650392 1.6245044708251952,-1.1251781463623047 l0.9691105842590332,-1.2378057479858398 0.9429662704467774,-0.3432129383087158 l0.6100238800048828,-0.021176083385944365 0.31069536209106446,0.3315234661102295 l0.2702812671661377,0.9008028030395507 0.22758326530456544,1.3976801872253417 l0.0013609100133180618,1.858969497680664 -0.670719575881958,1.8189863204956054 l-0.9267757415771485,1.8118242263793944 -0.6162182807922363,1.6998245239257812 l-0.24177949428558348,1.3511709213256835 0.3978156089782715,0.8262965202331543 l0.623748779296875,0.0619965136051178 1.102028751373291,-0.6364028453826904 l1.0162460327148437,-1.839918327331543 1.7063211441040038,-2.049623489379883 m10.163017272949219,-7.338133239746094 l6.076822280883789,-10.345305633544921 3.2076927185058595,-7.477974700927734 l1.623131561279297,-5.023440933227539 7.586017608642578,9.924064636230469 l-0.6745481491088867,2.892304229736328 -0.5222162723541259,3.6402236938476564 l-0.741664981842041,4.517367935180664 0.07829071283340454,2.7303903579711912 l1.128972053527832,0.5595865249633789 1.6110950469970704,0.3093363046646118 l1.4487545013427734,-1.0023261070251466 4.458218002319336,-18.34062957763672 l0.1671696424484253,1.7022134780883789 0.6740442276000976,1.3853982925415038 l0.9091009140014649,1.144160842895508 1.8247005462646484,1.1044978141784667 m25.95223388671875,-4.8003700256347654 l-0.21406183242797852,-0.41272792816162107 0.06783711910247803,-0.1713974356651306 l-0.01348341405391693,1.2131645202636718 -0.43924851417541505,1.9380224227905274 l-1.3343772888183594,1.9733362197875977 -0.17822943925857543,1.7892959594726563 l-0.48250455856323243,0.9354299545288086 0.09127927422523499,0.511582326889038 l-0.7830935001373291,-0.19515466690063477 -0.5135670185089112,-0.44178996086120603 m-2.1449146270751953,-17.66123809814453 l-0.1430928587913513,-0.037443792819976805 0.25256369113922117,-0.6708684921264648 l0.4665954113006592,0.8034211158752441 0.3443808078765869,1.1148395538330078 l0.6620100021362305,1.627463150024414 1.2351118087768556,2.0554004669189454 l1.259281539916992,1.8143871307373047 1.8668531417846679,2.252569007873535 l1.3501521110534669,2.0474178314208986 1.3836099624633789,2.5452999114990233 l0.7018652439117432,2.117640495300293 0.12613683938980103,2.2778377532958984 l-0.15067821741104126,1.580277442932129 -1.1579794883728027,1.557633876800537 l-1.920111083984375,1.56270751953125 -2.382088470458984,1.567439079284668 l-2.3719554901123048,1.6362890243530273 -2.332128715515137,1.1870718002319336 l-1.7851472854614259,0.0817121148109436 -0.7195995330810547,0.20053746700286865 l-0.442104434967041,-0.36423625946044924 0.713440990447998,-0.3064666986465454 l1.6434465408325196,-1.4329706192016602 2.8025222778320313,-1.7037055969238282 l3.310430145263672,-2.047787666320801 3.480982208251953,-1.2680310249328612 l3.028148651123047,-0.34419870376586914 2.0621665954589843,0.8472672462463379 l1.1193881988525392,1.446376419067383 0.7010446548461914,2.2802696228027344 l-0.10033365488052368,3.039399337768555 -1.5556553840637206,2.3061656951904297 l-1.8693355560302733,1.9734563827514648 -2.8503955841064452,1.3510129928588868 l-3.8340171813964843,0.5538570404052734 m24.498568725585937,-37.43204345703125 m0.34223461151123047,2.5907562255859373 l0.03954325616359711,4.685939025878906 0.2645195484161377,6.228406524658203 l1.035683536529541,3.33990364074707 1.1942358016967773,2.3850902557373046 l2.201910400390625,1.651200294494629 2.7574508666992186,0.9809623718261719 l2.3215425491333006,0.6405866146087646 m6.40264892578125,-26.888690185546874 l-0.5284178256988525,-0.5703515529632568 -0.11351872682571411,1.3803462028503417 l-0.8103207588195801,1.6193359375 -0.5724878311157227,2.203424644470215 l-0.32259345054626465,2.473260688781738 0.14902763366699218,1.7458053588867188 l1.0032559394836427,1.8039796829223633 0.2519858360290527,0.7901465415954589 m3.303097152709961,-15.561460876464844 l-0.0831814706325531,-0.9383722305297851 m7.331219482421875,7.510098266601562 l0.04440891444683075,-0.05733063220977783 0.2836034059524536,0.3457017183303833 l-0.014135771989822387,0.06197153925895691 -0.21806273460388184,-0.03855016529560089 l-0.3441644191741943,0.03554725348949432 0.7592778205871582,0.2630779504776001 l0.5179041862487793,0.01268596351146698 1.2697869300842286,-0.11839141845703124 l0.8538359642028809,-0.7642290115356445 1.7136003494262695,-0.5595333576202393 l1.6531332015991211,-0.6495623588562012 2.0069438934326174,-0.4784388065338135 l2.0897310256958006,-0.2710120439529419 1.4319377899169923,-0.033244311809539795 l1.6038993835449218,0.3712717294692993 1.201209545135498,0.4840519428253174 l1.4171582221984864,0.8200778007507324 0.6464855670928955,1.081785011291504 l0.18816132545471193,1.2990078926086426 0.2058100938796997,1.6799352645874024 l-0.7181060791015625,1.1546016693115235 -0.6403392791748047,0.915730094909668 l-1.2544766426086427,0.1380584716796875 -0.7007505893707275,-0.33221447467803955 l0.16018786430358886,-0.5954813957214355 m23.979637145996094,-10.55963592529297 m0.9009973526000976,0.30648465156555177 l0.13047986030578612,1.0423096656799316 -0.42552933692932127,1.6261987686157227 l-1.215468978881836,1.7945381164550782 -1.1239212036132813,1.758200454711914 l-1.2468130111694335,1.3688841819763184 -0.603430700302124,0.44236049652099607 l0.08330366015434265,-0.06813809871673585 0.20184359550476075,-0.9495295524597168 l0.9463196754455566,-0.9676870346069336 1.084318256378174,-0.8421435356140137 l0.8526605606079102,-0.624747371673584 1.4797935485839844,0.18707513809204102 l1.042815589904785,0.7374711990356445 1.1734498977661132,1.114349937438965 l1.2022672653198243,1.6903900146484374 1.1475863456726074,1.4307777404785156 l0.8440240859985352,1.0372748374938965 0.43665180206298826,1.1641124725341796 l1.0331270217895507,2.0532299041748048 0.23048794269561768,1.6359193801879883 l-0.17103654146194458,1.5726436614990233 -1.0175542831420898,0.6881464004516602 l-1.640571403503418,0.8665608406066895 -2.448404312133789,0.21944139003753663 l-3.3315814971923827,-0.19806389808654784 -3.3773273468017577,-0.25133702754974363 l-1.0940118789672852,-0.22571971416473388 -0.6270562171936035,-0.33469815254211427 l0.6401171684265137,-0.39645240306854246 1.1255402565002441,-0.7723898887634277 l1.594122314453125,-0.7348944664001464 2.4346227645874023,-0.4449406623840332 m24.824362182617186,-12.711914825439454 l0.47849297523498535,-0.7896416664123536 1.0083065032958984,-0.4842807769775391 l0.6986860752105712,-0.3130394458770752 0.181284761428833,-0.8119382858276367 l0.5802120208740235,-0.6002118587493896 0.45848307609558103,-0.05572119951248169 l-0.04208568036556244,0.24989116191864014 -0.3714719772338867,0.7188713073730468 l-0.3231532335281372,0.9467822074890136 -0.49464101791381837,1.549336051940918 l-0.6477827548980712,1.2597679138183593 -0.44699320793151853,1.1623333930969237 l0.33502557277679446,1.7380743026733398 0.3636009693145752,1.1205793380737306 l0.9060951232910156,1.3722700119018554 0.8746308326721192,1.2999067306518555 l0.05012186169624329,0.8082808494567871 -0.38169753551483154,1.3794440269470214 l-1.281770610809326,1.5044121742248535 -1.0512346267700194,1.934128189086914 l-1.802596092224121,1.980186653137207 -1.9695999145507812,1.8755929946899415 l-1.3419189453125,0.9240480422973633 -0.06801562309265137,1.3963059425354003 l0.7433860301971436,1.112005615234375 1.35709810256958,0.6458697319030762 l1.8301651000976562,-0.017966844141483307 1.6382627487182617,-1.064704132080078 l1.6829017639160155,-1.4383569717407227 1.1212135314941407,-1.8096263885498047 l1.215175247192383,-1.536466121673584 -0.11681607961654664,-1.8050430297851563 l-0.36206622123718263,-1.3815895080566407 -0.8118634223937988,-1.1107789039611817 l-0.883441162109375,-0.6487793922424316 -1.1619833946228026,-0.26956586837768554 l-1.1157144546508788,-0.03559955358505249 -1.2443750381469727,0.707460880279541 l-0.8706169128417969,1.4396198272705079 -0.2766277313232422,2.2036922454833983 l-0.1435166120529175,2.062709617614746 1.3152251243591309,2.5016014099121096 l1.3536058425903321,1.9613441467285155 1.6200664520263672,1.1924118995666504 l1.8137237548828125,0.9022085189819335 1.6592052459716797,0.31956772804260253 l1.8746809005737304,0.2190021276473999 1.2081385612487794,-0.5774454116821289 l0.8056343078613282,-0.9916709899902344 0.49156947135925294,-1.5014739036560059 l0.03809330463409424,-1.2500925064086914 -0.9749509811401367,-0.8289394378662109 l-0.45728292465209963,0.05434527397155762 -1.3946004867553712,0.17701621055603028 l-0.9996683120727539,1.30560302734375 -0.9286151885986328,1.7820207595825195 l-1.0762070655822753,2.1722488403320312 -0.5070393562316895,2.3773279190063477 l-0.49065346717834474,1.9673191070556642 0.44854116439819336,1.5780673980712892 l1.2750333786010741,1.3917717933654785 1.3129852294921875,0.5485120296478272 l1.1877962112426759,-0.4220071792602539 1.451980209350586,-0.8898106575012207 l1.2958988189697265,-1.279227352142334 0.9061857223510742,-1.9144027709960938 l0.537996482849121,-2.2879732131958006 0.4676688194274902,-1.410902214050293 l0.11597199440002441,-1.753023910522461 0.43126754760742186,-0.9404715538024903 l0.07947390079498291,-0.5939549922943115 0.6810719966888428,0.28801565170288085 l0.054679077863693235,0.493440580368042 0.469438362121582,0.900334358215332 l0.7375675201416015,1.1469001770019531 0.6948173522949219,0.6189850807189942 l1.0012128829956055,0.28058907985687254 1.7282119750976563,0.6173538208007813 l0.8961405754089355,0.04247252345085144 1.2668439865112304,0.12618863582611084 l1.6836277008056642,0.44658598899841306 1.3130599021911622,0.1816849946975708 m7.2902381896972654,-7.603726196289062 l-0.08522654771804809,0.937297248840332 0.7440227508544922,1.3326760292053224 l0.7465057373046875,0.2691769599914551 0.9470101356506347,-0.2732370138168335 l0.5190420150756836,-0.7826119422912597 0.5619425773620605,-0.4254473686218262 l0.4326962471008301,0.0274362713098526 -0.4412209987640381,-0.24559178352355956 l-0.3865518569946289,0.5098777770996094 -0.07485408782958984,0.9275859832763672 l-0.01817491799592972,1.2462082862854005 0.16245871782302856,1.7662031173706054 l-0.1718045949935913,1.5546287536621093 0.7591451644897461,1.400998020172119 l0.41274728775024416,0.436167049407959 0.9872903823852539,0.09868267178535461 l0.9306026458740234,0.020086103677749635 0.8098596572875977,-0.2506119728088379 l0.9443892478942871,-0.6804751396179199 0.34229824542999265,-1.0743107795715332 l0.8515784263610839,-0.8194931030273438 0.7287416934967041,-0.5253019332885742 l1.6513494491577148,-0.2544262170791626 1.058341884613037,-0.17375988960266114 m13.447251892089843,-1.3137025833129883 l-0.6759226799011231,-0.7522626876831054 -0.4397400379180908,-0.8877433776855469 l-0.22720088958740234,-0.9990267753601074 0.46357040405273436,-0.34347710609436033 l0.6797263622283936,0.36620144844055175 0.5190648078918457,0.8298824310302735 l0.13099561929702758,1.2156358718872071 9.270860290527343,-4.540040588378906 l-0.24369261264801026,-0.9646799087524414 -0.24803433418273926,-1.07271089553833 l-0.06018516421318054,-1.3165727615356446 -0.41268038749694824,-1.9222332000732423 l-0.5084351539611817,-1.228664493560791 -1.513479232788086,-1.4677990913391112 l-1.4496519088745117,-0.8226686477661133 -1.3884296417236328,-0.04518375992774963 l-1.553830051422119,0.2353539228439331 -0.8185108184814454,1.1645393371582031 l-0.4646884918212891,1.8450023651123046 0.38880946636199953,2.625286865234375 l0.06499090790748596,2.9428382873535157 0.945289421081543,2.018361282348633 l1.3398972511291505,1.5609352111816406 1.608487319946289,0.9705268859863281 l2.2251913070678713,0.19110682010650634 1.817435073852539,-0.20904135704040527 l1.5659350395202636,-1.0233715057373047 1.3028694152832032,-1.328021240234375 l1.0756072044372558,-0.8896183013916016 0.08132365942001343,-1.2715299606323243 l-0.14378857612609863,-1.074444580078125 -0.2571002960205078,-0.635359525680542 l-0.5183588981628418,-0.44492425918579104 -0.024289847910404207,-0.036436033248901364 l0.28808233737945554,0.7173869132995605 1.0140064239501954,1.5661210060119628 l1.1477023124694825,1.2461227416992187 1.9231859207153321,2.017098236083984 l1.0526276588439942,0.5765949249267578 1.8383079528808595,0.712674903869629 l0.9525663375854492,0.31190857887268064 0.37486517429351807,0.614478063583374 l-0.5789804458618164,0.3918097972869873 -0.05414283275604248,0.6307608604431152 l-0.6866884708404541,0.1834812045097351 -0.16950522661209105,0.4704399585723877 l-0.3591700553894043,-0.008791705965995789 0.20642852783203125,-0.24675440788269043 l0.9388601303100585,-0.43915529251098634 1.1175439834594727,-0.7940863609313965 l1.7273202896118165,-0.3521092891693115 1.5750919342041017,-0.35765159130096436 l1.2870274543762208,0.05303252339363098 1.0798043251037597,0.40320258140563964 l0.5237895965576171,0.42762460708618166 0.46159634590148924,0.6248002052307129 l0.7736008644104004,0.5544164180755615 1.1904145240783692,0.2186722993850708 l0.8418066024780273,-0.2078462839126587 0.6547085762023925,-0.6271486282348633 l0.3070957899093628,-0.5398946285247803 -0.2327261209487915,-0.5936083793640137 l-0.3110528469085693,-0.439656925201416 -0.4374539852142334,-0.5722553730010986 l-0.6530342102050781,-0.7868928909301758 -0.6132042407989502,-0.937722110748291 l-0.5894481658935546,-0.810911750793457 -0.15362824201583863,-0.6704879760742187 l0.32637619972229004,-0.17498338222503662 0.38796756267547605,-0.5743852138519288 l0.5840039253234863,-0.35996758937835693 0.5048072814941407,-0.7589512825012207 l0.23163268566131592,0.8479197502136231 -0.619352912902832,0.38078105449676514 l-0.9298622131347656,0.32845542430877683 -0.61788969039917,0.8557960510253906 l-1.348124122619629,0.4155466079711914 -0.502570390701294,0.6109796524047851 l-0.2975453853607178,1.0351303100585938 0.14783294200897218,0.8372760772705078 l0.7578677177429199,0.9470224380493164 0.8473896026611328,1.0692229270935059 l0.9402284622192383,1.2101731300354004 0.7706064224243164,1.2837440490722656 l0.5688192844390869,0.8871871948242187 0.11858762502670288,1.16078462600708 l-0.3995933771133423,1.507252311706543 -1.3976658821105956,1.4657889366149903 l-1.4406703948974608,1.282132911682129 -1.7743928909301758,0.8379239082336426 l-1.8770063400268555,0.6096758842468262 -1.1492527961730956,0.1319898247718811 l-1.317619228363037,0.07599003314971924 -0.994847583770752,-0.03742383420467377 l-0.864067554473877,-0.45473923683166506 0.3498532772064209,-0.7386828422546386 l0.40454397201538084,-0.15309722423553468 1.201974868774414,-0.18698102235794067 l1.3323749542236327,-0.16483670473098755 1.3787774085998534,0.010839603096246719 l1.2244014739990234,0.3812831401824951 0.9511844635009765,0.7868337631225586 l0.7597713470458984,0.7069131851196289 0.363311243057251,0.2881730794906616 l0.16291472911834717,0.1932303190231323 0.10651955604553223,0.16394119262695311 l-0.06788389682769776,-0.003327043354511261 0.5645153522491455,0.23081505298614502 l0.6063751697540283,-0.25005297660827636 0.6642461776733398,-0.7139270305633545 l1.0542912483215332,-0.6862497329711914 0.6913748741149902,-0.9125804901123047 l0.7225696563720703,-0.3347398042678833 0.5006064891815185,-0.2863944053649902 l0.25431392192840574,-0.016102316975593566 0.26663086414337156,0.15188037157058715 l0.23403630256652833,0.5718705177307128 -0.26209006309509275,0.7454690933227539 l-1.0788608551025392,0.9957486152648926 -0.7936933517456055,1.3918716430664062 l-0.6552061557769775,1.7768594741821289 -0.696010160446167,1.583547019958496 l-0.3249056816101074,1.4587034225463866 0.6396243095397949,1.1700244903564454 l0.29485139846801756,0.7380742073059082 0.8225554466247559,0.3514188289642334 l1.0095762252807616,-0.011904775351285934 1.1724531173706054,-0.3675724983215332 l1.185554027557373,-0.37575473785400393 1.0248560905456543,-0.6196966171264648 l0.7359319210052491,-0.43365960121154784 0.834471607208252,-0.13396812677383424 l0.4320221900939941,-0.12102646827697754 0.10537582635879517,0.02316215932369232 l0.09062284827232361,0.38529267311096194 -0.3051119089126587,0.5611043930053711 l-0.13582420349121094,0.5305299282073974 -0.544358777999878,0.8903635978698731 m3.606158447265625,3.9854198455810548 l0.02012968957424164,0.9544389724731446 -0.05719199776649475,0.7014604568481445 l0.5312998294830322,1.393588161468506 -0.12486459016799926,0.7770952701568603 l0.13276195526123047,0.7692282199859619 -0.2781542778015137,0.2862462043762207 l-0.3464056015014648,0.24453208446502686 -0.42269291877746584,-0.13866169452667237 l0.06432837247848511,-0.11096386909484864 -0.5628983497619628,-0.7435743808746338 l-0.10039373636245727,-0.5210465908050537 -1.0588234901428222,-1.0752638816833495 l-0.25990798473358157,-1.040412425994873 -0.122390878200531,-0.717479658126831 l-0.28440146446228026,-0.8732089042663574 0.5868752002716064,-0.798823881149292 m18.069927978515626,-2.810934066772461 l0.931266975402832,-0.30916571617126465 1.010408592224121,-0.7027654647827148 l0.447497034072876,-0.9084153175354004 0.7173798084259033,-0.7868001937866211 l-0.1096877932548523,-0.9015959739685059 0.3391115188598633,-0.6696120262145996 m22.637567138671876,-16.41941680908203 l0.10448040962219238,-0.06903418898582458 0.21555593013763427,0.6234077930450439 l-0.3039506435394287,2.2157825469970702 -0.6710494041442872,3.1799715042114256 l-0.9632271766662598,3.755078887939453 -0.830992317199707,4.209957122802734 l-0.2457526445388794,4.673575973510742 0.12221126556396485,3.7254913330078123 l0.491611385345459,2.981164741516113 0.5897998809814453,2.889381217956543 l0.8489253997802735,2.7613563537597656 0.27564249038696287,2.1726917266845702 l-0.6847702026367187,1.4820829391479493 -1.2700925827026368,0.9719307899475098 l-1.2327157974243164,0.5555799007415771 m0.36698939800262453,-29.438458251953126 l-0.21222214698791503,0.442964506149292 0.4961355686187744,1.4218076705932616 l0.21127095222473144,3.189793586730957 -0.06282632350921631,3.8176612854003906 m-4.837931060791016,-31.050021362304687 l1.32379207611084,4.084783554077148 1.3385736465454101,2.9376230239868164 l1.0607391357421876,4.034462738037109 1.4047842025756836,4.320045089721679 l0.5405005931854248,3.1647178649902346 " fill="none" stroke="black" stroke-width="1" /></svg>